G75*
%MOIN*%
%OFA0B0*%
%FSLAX25Y25*%
%IPPOS*%
%LPD*%
%AMOC8*
5,1,8,0,0,1.08239X$1,22.5*
%
%ADD10C,0.00000*%
%ADD11C,0.01600*%
D10*
X0045561Y0196800D02*
X0045563Y0196958D01*
X0045569Y0197116D01*
X0045579Y0197274D01*
X0045593Y0197432D01*
X0045611Y0197589D01*
X0045632Y0197746D01*
X0045658Y0197902D01*
X0045688Y0198058D01*
X0045721Y0198213D01*
X0045759Y0198366D01*
X0045800Y0198519D01*
X0045845Y0198671D01*
X0045894Y0198822D01*
X0045947Y0198971D01*
X0046003Y0199119D01*
X0046063Y0199265D01*
X0046127Y0199410D01*
X0046195Y0199553D01*
X0046266Y0199695D01*
X0046340Y0199835D01*
X0046418Y0199972D01*
X0046500Y0200108D01*
X0046584Y0200242D01*
X0046673Y0200373D01*
X0046764Y0200502D01*
X0046859Y0200629D01*
X0046956Y0200754D01*
X0047057Y0200876D01*
X0047161Y0200995D01*
X0047268Y0201112D01*
X0047378Y0201226D01*
X0047491Y0201337D01*
X0047606Y0201446D01*
X0047724Y0201551D01*
X0047845Y0201653D01*
X0047968Y0201753D01*
X0048094Y0201849D01*
X0048222Y0201942D01*
X0048352Y0202032D01*
X0048485Y0202118D01*
X0048620Y0202202D01*
X0048756Y0202281D01*
X0048895Y0202358D01*
X0049036Y0202430D01*
X0049178Y0202500D01*
X0049322Y0202565D01*
X0049468Y0202627D01*
X0049615Y0202685D01*
X0049764Y0202740D01*
X0049914Y0202791D01*
X0050065Y0202838D01*
X0050217Y0202881D01*
X0050370Y0202920D01*
X0050525Y0202956D01*
X0050680Y0202987D01*
X0050836Y0203015D01*
X0050992Y0203039D01*
X0051149Y0203059D01*
X0051307Y0203075D01*
X0051464Y0203087D01*
X0051623Y0203095D01*
X0051781Y0203099D01*
X0051939Y0203099D01*
X0052097Y0203095D01*
X0052256Y0203087D01*
X0052413Y0203075D01*
X0052571Y0203059D01*
X0052728Y0203039D01*
X0052884Y0203015D01*
X0053040Y0202987D01*
X0053195Y0202956D01*
X0053350Y0202920D01*
X0053503Y0202881D01*
X0053655Y0202838D01*
X0053806Y0202791D01*
X0053956Y0202740D01*
X0054105Y0202685D01*
X0054252Y0202627D01*
X0054398Y0202565D01*
X0054542Y0202500D01*
X0054684Y0202430D01*
X0054825Y0202358D01*
X0054964Y0202281D01*
X0055100Y0202202D01*
X0055235Y0202118D01*
X0055368Y0202032D01*
X0055498Y0201942D01*
X0055626Y0201849D01*
X0055752Y0201753D01*
X0055875Y0201653D01*
X0055996Y0201551D01*
X0056114Y0201446D01*
X0056229Y0201337D01*
X0056342Y0201226D01*
X0056452Y0201112D01*
X0056559Y0200995D01*
X0056663Y0200876D01*
X0056764Y0200754D01*
X0056861Y0200629D01*
X0056956Y0200502D01*
X0057047Y0200373D01*
X0057136Y0200242D01*
X0057220Y0200108D01*
X0057302Y0199972D01*
X0057380Y0199835D01*
X0057454Y0199695D01*
X0057525Y0199553D01*
X0057593Y0199410D01*
X0057657Y0199265D01*
X0057717Y0199119D01*
X0057773Y0198971D01*
X0057826Y0198822D01*
X0057875Y0198671D01*
X0057920Y0198519D01*
X0057961Y0198366D01*
X0057999Y0198213D01*
X0058032Y0198058D01*
X0058062Y0197902D01*
X0058088Y0197746D01*
X0058109Y0197589D01*
X0058127Y0197432D01*
X0058141Y0197274D01*
X0058151Y0197116D01*
X0058157Y0196958D01*
X0058159Y0196800D01*
X0058157Y0196642D01*
X0058151Y0196484D01*
X0058141Y0196326D01*
X0058127Y0196168D01*
X0058109Y0196011D01*
X0058088Y0195854D01*
X0058062Y0195698D01*
X0058032Y0195542D01*
X0057999Y0195387D01*
X0057961Y0195234D01*
X0057920Y0195081D01*
X0057875Y0194929D01*
X0057826Y0194778D01*
X0057773Y0194629D01*
X0057717Y0194481D01*
X0057657Y0194335D01*
X0057593Y0194190D01*
X0057525Y0194047D01*
X0057454Y0193905D01*
X0057380Y0193765D01*
X0057302Y0193628D01*
X0057220Y0193492D01*
X0057136Y0193358D01*
X0057047Y0193227D01*
X0056956Y0193098D01*
X0056861Y0192971D01*
X0056764Y0192846D01*
X0056663Y0192724D01*
X0056559Y0192605D01*
X0056452Y0192488D01*
X0056342Y0192374D01*
X0056229Y0192263D01*
X0056114Y0192154D01*
X0055996Y0192049D01*
X0055875Y0191947D01*
X0055752Y0191847D01*
X0055626Y0191751D01*
X0055498Y0191658D01*
X0055368Y0191568D01*
X0055235Y0191482D01*
X0055100Y0191398D01*
X0054964Y0191319D01*
X0054825Y0191242D01*
X0054684Y0191170D01*
X0054542Y0191100D01*
X0054398Y0191035D01*
X0054252Y0190973D01*
X0054105Y0190915D01*
X0053956Y0190860D01*
X0053806Y0190809D01*
X0053655Y0190762D01*
X0053503Y0190719D01*
X0053350Y0190680D01*
X0053195Y0190644D01*
X0053040Y0190613D01*
X0052884Y0190585D01*
X0052728Y0190561D01*
X0052571Y0190541D01*
X0052413Y0190525D01*
X0052256Y0190513D01*
X0052097Y0190505D01*
X0051939Y0190501D01*
X0051781Y0190501D01*
X0051623Y0190505D01*
X0051464Y0190513D01*
X0051307Y0190525D01*
X0051149Y0190541D01*
X0050992Y0190561D01*
X0050836Y0190585D01*
X0050680Y0190613D01*
X0050525Y0190644D01*
X0050370Y0190680D01*
X0050217Y0190719D01*
X0050065Y0190762D01*
X0049914Y0190809D01*
X0049764Y0190860D01*
X0049615Y0190915D01*
X0049468Y0190973D01*
X0049322Y0191035D01*
X0049178Y0191100D01*
X0049036Y0191170D01*
X0048895Y0191242D01*
X0048756Y0191319D01*
X0048620Y0191398D01*
X0048485Y0191482D01*
X0048352Y0191568D01*
X0048222Y0191658D01*
X0048094Y0191751D01*
X0047968Y0191847D01*
X0047845Y0191947D01*
X0047724Y0192049D01*
X0047606Y0192154D01*
X0047491Y0192263D01*
X0047378Y0192374D01*
X0047268Y0192488D01*
X0047161Y0192605D01*
X0047057Y0192724D01*
X0046956Y0192846D01*
X0046859Y0192971D01*
X0046764Y0193098D01*
X0046673Y0193227D01*
X0046584Y0193358D01*
X0046500Y0193492D01*
X0046418Y0193628D01*
X0046340Y0193765D01*
X0046266Y0193905D01*
X0046195Y0194047D01*
X0046127Y0194190D01*
X0046063Y0194335D01*
X0046003Y0194481D01*
X0045947Y0194629D01*
X0045894Y0194778D01*
X0045845Y0194929D01*
X0045800Y0195081D01*
X0045759Y0195234D01*
X0045721Y0195387D01*
X0045688Y0195542D01*
X0045658Y0195698D01*
X0045632Y0195854D01*
X0045611Y0196011D01*
X0045593Y0196168D01*
X0045579Y0196326D01*
X0045569Y0196484D01*
X0045563Y0196642D01*
X0045561Y0196800D01*
D11*
X0001860Y0161800D02*
X0001860Y0056297D01*
X0051358Y0001800D02*
X0052578Y0001815D01*
X0053798Y0001859D01*
X0055016Y0001933D01*
X0056232Y0002036D01*
X0057445Y0002168D01*
X0058655Y0002330D01*
X0059861Y0002521D01*
X0061061Y0002741D01*
X0062256Y0002990D01*
X0063444Y0003268D01*
X0064626Y0003574D01*
X0065799Y0003909D01*
X0066964Y0004272D01*
X0068120Y0004663D01*
X0069267Y0005082D01*
X0070402Y0005528D01*
X0071527Y0006002D01*
X0072640Y0006503D01*
X0073741Y0007031D01*
X0074828Y0007585D01*
X0075902Y0008165D01*
X0076961Y0008771D01*
X0078005Y0009402D01*
X0079034Y0010059D01*
X0080047Y0010740D01*
X0081043Y0011445D01*
X0082022Y0012174D01*
X0082982Y0012927D01*
X0083924Y0013703D01*
X0084848Y0014501D01*
X0085751Y0015321D01*
X0086635Y0016163D01*
X0087498Y0017026D01*
X0088340Y0017910D01*
X0089160Y0018813D01*
X0089958Y0019737D01*
X0090734Y0020679D01*
X0091487Y0021639D01*
X0092216Y0022618D01*
X0092921Y0023614D01*
X0093602Y0024627D01*
X0094259Y0025656D01*
X0094890Y0026700D01*
X0095496Y0027759D01*
X0096076Y0028833D01*
X0096630Y0029920D01*
X0097158Y0031021D01*
X0097659Y0032134D01*
X0098133Y0033259D01*
X0098579Y0034394D01*
X0098998Y0035541D01*
X0099389Y0036697D01*
X0099752Y0037862D01*
X0100087Y0039035D01*
X0100393Y0040217D01*
X0100671Y0041405D01*
X0100920Y0042600D01*
X0101140Y0043800D01*
X0101331Y0045006D01*
X0101493Y0046216D01*
X0101625Y0047429D01*
X0101728Y0048645D01*
X0101802Y0049863D01*
X0101846Y0051083D01*
X0101861Y0052303D01*
X0101860Y0052303D02*
X0101860Y0161800D01*
X0101851Y0162525D01*
X0101825Y0163249D01*
X0101781Y0163973D01*
X0101720Y0164695D01*
X0101641Y0165416D01*
X0101545Y0166135D01*
X0101432Y0166851D01*
X0101301Y0167564D01*
X0101153Y0168274D01*
X0100988Y0168979D01*
X0100806Y0169681D01*
X0100607Y0170378D01*
X0100392Y0171071D01*
X0100159Y0171757D01*
X0099910Y0172438D01*
X0099645Y0173113D01*
X0099364Y0173781D01*
X0099066Y0174442D01*
X0098753Y0175096D01*
X0098424Y0175742D01*
X0098079Y0176380D01*
X0097719Y0177009D01*
X0097344Y0177629D01*
X0096954Y0178240D01*
X0096550Y0178842D01*
X0096131Y0179434D01*
X0095697Y0180015D01*
X0095250Y0180586D01*
X0094789Y0181145D01*
X0094315Y0181694D01*
X0093828Y0182230D01*
X0093328Y0182755D01*
X0092815Y0183268D01*
X0092290Y0183768D01*
X0091754Y0184255D01*
X0091205Y0184729D01*
X0090646Y0185190D01*
X0090075Y0185637D01*
X0089494Y0186071D01*
X0088902Y0186490D01*
X0088300Y0186894D01*
X0087689Y0187284D01*
X0087069Y0187659D01*
X0086440Y0188019D01*
X0085802Y0188364D01*
X0085156Y0188693D01*
X0084502Y0189006D01*
X0083841Y0189304D01*
X0083173Y0189585D01*
X0082498Y0189850D01*
X0081817Y0190099D01*
X0081131Y0190332D01*
X0080438Y0190547D01*
X0079741Y0190746D01*
X0079039Y0190928D01*
X0078334Y0191093D01*
X0077624Y0191241D01*
X0076911Y0191372D01*
X0076195Y0191485D01*
X0075476Y0191581D01*
X0074755Y0191660D01*
X0074033Y0191721D01*
X0073309Y0191765D01*
X0072585Y0191791D01*
X0071860Y0191800D01*
X0071860Y0198772D01*
X0071855Y0199208D01*
X0071839Y0199643D01*
X0071813Y0200078D01*
X0071776Y0200512D01*
X0071729Y0200945D01*
X0071671Y0201377D01*
X0071603Y0201807D01*
X0071524Y0202236D01*
X0071435Y0202662D01*
X0071336Y0203086D01*
X0071227Y0203508D01*
X0071107Y0203927D01*
X0070978Y0204343D01*
X0070838Y0204756D01*
X0070688Y0205165D01*
X0070529Y0205570D01*
X0070360Y0205972D01*
X0070181Y0206369D01*
X0069993Y0206762D01*
X0069795Y0207150D01*
X0069588Y0207533D01*
X0069372Y0207911D01*
X0069146Y0208284D01*
X0068912Y0208652D01*
X0068669Y0209013D01*
X0068417Y0209369D01*
X0068157Y0209718D01*
X0067888Y0210061D01*
X0067611Y0210397D01*
X0067326Y0210727D01*
X0067033Y0211049D01*
X0066733Y0211365D01*
X0066425Y0211673D01*
X0066109Y0211973D01*
X0065787Y0212266D01*
X0065457Y0212551D01*
X0065121Y0212828D01*
X0064778Y0213097D01*
X0064429Y0213357D01*
X0064073Y0213609D01*
X0063712Y0213852D01*
X0063344Y0214086D01*
X0062971Y0214312D01*
X0062593Y0214528D01*
X0062210Y0214735D01*
X0061822Y0214933D01*
X0061429Y0215121D01*
X0061032Y0215300D01*
X0060630Y0215469D01*
X0060225Y0215628D01*
X0059816Y0215778D01*
X0059403Y0215918D01*
X0058987Y0216047D01*
X0058568Y0216167D01*
X0058146Y0216276D01*
X0057722Y0216375D01*
X0057296Y0216464D01*
X0056867Y0216543D01*
X0056437Y0216611D01*
X0056005Y0216669D01*
X0055572Y0216716D01*
X0055138Y0216753D01*
X0054703Y0216779D01*
X0054268Y0216795D01*
X0053832Y0216800D01*
X0049888Y0216800D01*
X0049452Y0216795D01*
X0049017Y0216779D01*
X0048582Y0216753D01*
X0048148Y0216716D01*
X0047715Y0216669D01*
X0047283Y0216611D01*
X0046853Y0216543D01*
X0046424Y0216464D01*
X0045998Y0216375D01*
X0045574Y0216276D01*
X0045152Y0216167D01*
X0044733Y0216047D01*
X0044317Y0215918D01*
X0043904Y0215778D01*
X0043495Y0215628D01*
X0043090Y0215469D01*
X0042688Y0215300D01*
X0042291Y0215121D01*
X0041898Y0214933D01*
X0041510Y0214735D01*
X0041127Y0214528D01*
X0040749Y0214312D01*
X0040376Y0214086D01*
X0040008Y0213852D01*
X0039647Y0213609D01*
X0039291Y0213357D01*
X0038942Y0213097D01*
X0038599Y0212828D01*
X0038263Y0212551D01*
X0037933Y0212266D01*
X0037611Y0211973D01*
X0037295Y0211673D01*
X0036987Y0211365D01*
X0036687Y0211049D01*
X0036394Y0210727D01*
X0036109Y0210397D01*
X0035832Y0210061D01*
X0035563Y0209718D01*
X0035303Y0209369D01*
X0035051Y0209013D01*
X0034808Y0208652D01*
X0034574Y0208284D01*
X0034348Y0207911D01*
X0034132Y0207533D01*
X0033925Y0207150D01*
X0033727Y0206762D01*
X0033539Y0206369D01*
X0033360Y0205972D01*
X0033191Y0205570D01*
X0033032Y0205165D01*
X0032882Y0204756D01*
X0032742Y0204343D01*
X0032613Y0203927D01*
X0032493Y0203508D01*
X0032384Y0203086D01*
X0032285Y0202662D01*
X0032196Y0202236D01*
X0032117Y0201807D01*
X0032049Y0201377D01*
X0031991Y0200945D01*
X0031944Y0200512D01*
X0031907Y0200078D01*
X0031881Y0199643D01*
X0031865Y0199208D01*
X0031860Y0198772D01*
X0031860Y0191800D01*
X0031135Y0191791D01*
X0030411Y0191765D01*
X0029687Y0191721D01*
X0028965Y0191660D01*
X0028244Y0191581D01*
X0027525Y0191485D01*
X0026809Y0191372D01*
X0026096Y0191241D01*
X0025386Y0191093D01*
X0024681Y0190928D01*
X0023979Y0190746D01*
X0023282Y0190547D01*
X0022589Y0190332D01*
X0021903Y0190099D01*
X0021222Y0189850D01*
X0020547Y0189585D01*
X0019879Y0189304D01*
X0019218Y0189006D01*
X0018564Y0188693D01*
X0017918Y0188364D01*
X0017280Y0188019D01*
X0016651Y0187659D01*
X0016031Y0187284D01*
X0015420Y0186894D01*
X0014818Y0186490D01*
X0014226Y0186071D01*
X0013645Y0185637D01*
X0013074Y0185190D01*
X0012515Y0184729D01*
X0011966Y0184255D01*
X0011430Y0183768D01*
X0010905Y0183268D01*
X0010392Y0182755D01*
X0009892Y0182230D01*
X0009405Y0181694D01*
X0008931Y0181145D01*
X0008470Y0180586D01*
X0008023Y0180015D01*
X0007589Y0179434D01*
X0007170Y0178842D01*
X0006766Y0178240D01*
X0006376Y0177629D01*
X0006001Y0177009D01*
X0005641Y0176380D01*
X0005296Y0175742D01*
X0004967Y0175096D01*
X0004654Y0174442D01*
X0004356Y0173781D01*
X0004075Y0173113D01*
X0003810Y0172438D01*
X0003561Y0171757D01*
X0003328Y0171071D01*
X0003113Y0170378D01*
X0002914Y0169681D01*
X0002732Y0168979D01*
X0002567Y0168274D01*
X0002419Y0167564D01*
X0002288Y0166851D01*
X0002175Y0166135D01*
X0002079Y0165416D01*
X0002000Y0164695D01*
X0001939Y0163973D01*
X0001895Y0163249D01*
X0001869Y0162525D01*
X0001860Y0161800D01*
X0001860Y0056297D02*
X0001814Y0055020D01*
X0001800Y0053743D01*
X0001817Y0052465D01*
X0001865Y0051188D01*
X0001945Y0049913D01*
X0002056Y0048640D01*
X0002198Y0047371D01*
X0002371Y0046105D01*
X0002576Y0044843D01*
X0002811Y0043588D01*
X0003077Y0042338D01*
X0003373Y0041095D01*
X0003700Y0039860D01*
X0004057Y0038633D01*
X0004445Y0037416D01*
X0004861Y0036208D01*
X0005308Y0035011D01*
X0005784Y0033825D01*
X0006288Y0032651D01*
X0006821Y0031490D01*
X0007383Y0030343D01*
X0007973Y0029209D01*
X0008590Y0028090D01*
X0009234Y0026987D01*
X0009906Y0025900D01*
X0010604Y0024830D01*
X0011328Y0023777D01*
X0012077Y0022742D01*
X0012852Y0021726D01*
X0013651Y0020730D01*
X0014475Y0019753D01*
X0015322Y0018797D01*
X0016193Y0017862D01*
X0017086Y0016948D01*
X0018001Y0016057D01*
X0018938Y0015188D01*
X0019896Y0014343D01*
X0020875Y0013521D01*
X0021873Y0012724D01*
X0022891Y0011951D01*
X0023927Y0011204D01*
X0024981Y0010482D01*
X0026053Y0009787D01*
X0027142Y0009117D01*
X0028246Y0008475D01*
X0029366Y0007860D01*
X0030501Y0007273D01*
X0031650Y0006714D01*
X0032812Y0006183D01*
X0033987Y0005681D01*
X0035173Y0005208D01*
X0036371Y0004764D01*
X0037580Y0004349D01*
X0038798Y0003965D01*
X0040026Y0003610D01*
X0041262Y0003286D01*
X0042505Y0002992D01*
X0043755Y0002729D01*
X0045012Y0002496D01*
X0046273Y0002294D01*
X0047540Y0002124D01*
X0048810Y0001984D01*
X0050083Y0001876D01*
X0051358Y0001799D01*
M02*
