G75*
%MOIN*%
%OFA0B0*%
%FSLAX25Y25*%
%IPPOS*%
%LPD*%
%AMOC8*
5,1,8,0,0,1.08239X$1,22.5*
%
%ADD10C,0.00000*%
%ADD11C,0.00600*%
%ADD12C,0.00500*%
%ADD13R,0.03400X0.02400*%
%ADD14C,0.00800*%
%ADD15C,0.00400*%
D10*
X0045561Y0196800D02*
X0045563Y0196958D01*
X0045569Y0197116D01*
X0045579Y0197274D01*
X0045593Y0197432D01*
X0045611Y0197589D01*
X0045632Y0197746D01*
X0045658Y0197902D01*
X0045688Y0198058D01*
X0045721Y0198213D01*
X0045759Y0198366D01*
X0045800Y0198519D01*
X0045845Y0198671D01*
X0045894Y0198822D01*
X0045947Y0198971D01*
X0046003Y0199119D01*
X0046063Y0199265D01*
X0046127Y0199410D01*
X0046195Y0199553D01*
X0046266Y0199695D01*
X0046340Y0199835D01*
X0046418Y0199972D01*
X0046500Y0200108D01*
X0046584Y0200242D01*
X0046673Y0200373D01*
X0046764Y0200502D01*
X0046859Y0200629D01*
X0046956Y0200754D01*
X0047057Y0200876D01*
X0047161Y0200995D01*
X0047268Y0201112D01*
X0047378Y0201226D01*
X0047491Y0201337D01*
X0047606Y0201446D01*
X0047724Y0201551D01*
X0047845Y0201653D01*
X0047968Y0201753D01*
X0048094Y0201849D01*
X0048222Y0201942D01*
X0048352Y0202032D01*
X0048485Y0202118D01*
X0048620Y0202202D01*
X0048756Y0202281D01*
X0048895Y0202358D01*
X0049036Y0202430D01*
X0049178Y0202500D01*
X0049322Y0202565D01*
X0049468Y0202627D01*
X0049615Y0202685D01*
X0049764Y0202740D01*
X0049914Y0202791D01*
X0050065Y0202838D01*
X0050217Y0202881D01*
X0050370Y0202920D01*
X0050525Y0202956D01*
X0050680Y0202987D01*
X0050836Y0203015D01*
X0050992Y0203039D01*
X0051149Y0203059D01*
X0051307Y0203075D01*
X0051464Y0203087D01*
X0051623Y0203095D01*
X0051781Y0203099D01*
X0051939Y0203099D01*
X0052097Y0203095D01*
X0052256Y0203087D01*
X0052413Y0203075D01*
X0052571Y0203059D01*
X0052728Y0203039D01*
X0052884Y0203015D01*
X0053040Y0202987D01*
X0053195Y0202956D01*
X0053350Y0202920D01*
X0053503Y0202881D01*
X0053655Y0202838D01*
X0053806Y0202791D01*
X0053956Y0202740D01*
X0054105Y0202685D01*
X0054252Y0202627D01*
X0054398Y0202565D01*
X0054542Y0202500D01*
X0054684Y0202430D01*
X0054825Y0202358D01*
X0054964Y0202281D01*
X0055100Y0202202D01*
X0055235Y0202118D01*
X0055368Y0202032D01*
X0055498Y0201942D01*
X0055626Y0201849D01*
X0055752Y0201753D01*
X0055875Y0201653D01*
X0055996Y0201551D01*
X0056114Y0201446D01*
X0056229Y0201337D01*
X0056342Y0201226D01*
X0056452Y0201112D01*
X0056559Y0200995D01*
X0056663Y0200876D01*
X0056764Y0200754D01*
X0056861Y0200629D01*
X0056956Y0200502D01*
X0057047Y0200373D01*
X0057136Y0200242D01*
X0057220Y0200108D01*
X0057302Y0199972D01*
X0057380Y0199835D01*
X0057454Y0199695D01*
X0057525Y0199553D01*
X0057593Y0199410D01*
X0057657Y0199265D01*
X0057717Y0199119D01*
X0057773Y0198971D01*
X0057826Y0198822D01*
X0057875Y0198671D01*
X0057920Y0198519D01*
X0057961Y0198366D01*
X0057999Y0198213D01*
X0058032Y0198058D01*
X0058062Y0197902D01*
X0058088Y0197746D01*
X0058109Y0197589D01*
X0058127Y0197432D01*
X0058141Y0197274D01*
X0058151Y0197116D01*
X0058157Y0196958D01*
X0058159Y0196800D01*
X0058157Y0196642D01*
X0058151Y0196484D01*
X0058141Y0196326D01*
X0058127Y0196168D01*
X0058109Y0196011D01*
X0058088Y0195854D01*
X0058062Y0195698D01*
X0058032Y0195542D01*
X0057999Y0195387D01*
X0057961Y0195234D01*
X0057920Y0195081D01*
X0057875Y0194929D01*
X0057826Y0194778D01*
X0057773Y0194629D01*
X0057717Y0194481D01*
X0057657Y0194335D01*
X0057593Y0194190D01*
X0057525Y0194047D01*
X0057454Y0193905D01*
X0057380Y0193765D01*
X0057302Y0193628D01*
X0057220Y0193492D01*
X0057136Y0193358D01*
X0057047Y0193227D01*
X0056956Y0193098D01*
X0056861Y0192971D01*
X0056764Y0192846D01*
X0056663Y0192724D01*
X0056559Y0192605D01*
X0056452Y0192488D01*
X0056342Y0192374D01*
X0056229Y0192263D01*
X0056114Y0192154D01*
X0055996Y0192049D01*
X0055875Y0191947D01*
X0055752Y0191847D01*
X0055626Y0191751D01*
X0055498Y0191658D01*
X0055368Y0191568D01*
X0055235Y0191482D01*
X0055100Y0191398D01*
X0054964Y0191319D01*
X0054825Y0191242D01*
X0054684Y0191170D01*
X0054542Y0191100D01*
X0054398Y0191035D01*
X0054252Y0190973D01*
X0054105Y0190915D01*
X0053956Y0190860D01*
X0053806Y0190809D01*
X0053655Y0190762D01*
X0053503Y0190719D01*
X0053350Y0190680D01*
X0053195Y0190644D01*
X0053040Y0190613D01*
X0052884Y0190585D01*
X0052728Y0190561D01*
X0052571Y0190541D01*
X0052413Y0190525D01*
X0052256Y0190513D01*
X0052097Y0190505D01*
X0051939Y0190501D01*
X0051781Y0190501D01*
X0051623Y0190505D01*
X0051464Y0190513D01*
X0051307Y0190525D01*
X0051149Y0190541D01*
X0050992Y0190561D01*
X0050836Y0190585D01*
X0050680Y0190613D01*
X0050525Y0190644D01*
X0050370Y0190680D01*
X0050217Y0190719D01*
X0050065Y0190762D01*
X0049914Y0190809D01*
X0049764Y0190860D01*
X0049615Y0190915D01*
X0049468Y0190973D01*
X0049322Y0191035D01*
X0049178Y0191100D01*
X0049036Y0191170D01*
X0048895Y0191242D01*
X0048756Y0191319D01*
X0048620Y0191398D01*
X0048485Y0191482D01*
X0048352Y0191568D01*
X0048222Y0191658D01*
X0048094Y0191751D01*
X0047968Y0191847D01*
X0047845Y0191947D01*
X0047724Y0192049D01*
X0047606Y0192154D01*
X0047491Y0192263D01*
X0047378Y0192374D01*
X0047268Y0192488D01*
X0047161Y0192605D01*
X0047057Y0192724D01*
X0046956Y0192846D01*
X0046859Y0192971D01*
X0046764Y0193098D01*
X0046673Y0193227D01*
X0046584Y0193358D01*
X0046500Y0193492D01*
X0046418Y0193628D01*
X0046340Y0193765D01*
X0046266Y0193905D01*
X0046195Y0194047D01*
X0046127Y0194190D01*
X0046063Y0194335D01*
X0046003Y0194481D01*
X0045947Y0194629D01*
X0045894Y0194778D01*
X0045845Y0194929D01*
X0045800Y0195081D01*
X0045759Y0195234D01*
X0045721Y0195387D01*
X0045688Y0195542D01*
X0045658Y0195698D01*
X0045632Y0195854D01*
X0045611Y0196011D01*
X0045593Y0196168D01*
X0045579Y0196326D01*
X0045569Y0196484D01*
X0045563Y0196642D01*
X0045561Y0196800D01*
D11*
X0041860Y0176300D02*
X0040360Y0176300D01*
X0040300Y0176298D01*
X0040239Y0176293D01*
X0040180Y0176284D01*
X0040121Y0176271D01*
X0040062Y0176255D01*
X0040005Y0176235D01*
X0039950Y0176212D01*
X0039895Y0176185D01*
X0039843Y0176156D01*
X0039792Y0176123D01*
X0039743Y0176087D01*
X0039697Y0176049D01*
X0039653Y0176007D01*
X0039611Y0175963D01*
X0039573Y0175917D01*
X0039537Y0175868D01*
X0039504Y0175817D01*
X0039475Y0175765D01*
X0039448Y0175710D01*
X0039425Y0175655D01*
X0039405Y0175598D01*
X0039389Y0175539D01*
X0039376Y0175480D01*
X0039367Y0175421D01*
X0039362Y0175360D01*
X0039360Y0175300D01*
X0039360Y0168300D01*
X0039362Y0168240D01*
X0039367Y0168179D01*
X0039376Y0168120D01*
X0039389Y0168061D01*
X0039405Y0168002D01*
X0039425Y0167945D01*
X0039448Y0167890D01*
X0039475Y0167835D01*
X0039504Y0167783D01*
X0039537Y0167732D01*
X0039573Y0167683D01*
X0039611Y0167637D01*
X0039653Y0167593D01*
X0039697Y0167551D01*
X0039743Y0167513D01*
X0039792Y0167477D01*
X0039843Y0167444D01*
X0039895Y0167415D01*
X0039950Y0167388D01*
X0040005Y0167365D01*
X0040062Y0167345D01*
X0040121Y0167329D01*
X0040180Y0167316D01*
X0040239Y0167307D01*
X0040300Y0167302D01*
X0040360Y0167300D01*
X0041860Y0167300D01*
X0042360Y0167800D01*
X0061360Y0167800D01*
X0061860Y0167300D01*
X0063360Y0167300D01*
X0063420Y0167302D01*
X0063481Y0167307D01*
X0063540Y0167316D01*
X0063599Y0167329D01*
X0063658Y0167345D01*
X0063715Y0167365D01*
X0063770Y0167388D01*
X0063825Y0167415D01*
X0063877Y0167444D01*
X0063928Y0167477D01*
X0063977Y0167513D01*
X0064023Y0167551D01*
X0064067Y0167593D01*
X0064109Y0167637D01*
X0064147Y0167683D01*
X0064183Y0167732D01*
X0064216Y0167783D01*
X0064245Y0167835D01*
X0064272Y0167890D01*
X0064295Y0167945D01*
X0064315Y0168002D01*
X0064331Y0168061D01*
X0064344Y0168120D01*
X0064353Y0168179D01*
X0064358Y0168240D01*
X0064360Y0168300D01*
X0064360Y0175300D01*
X0064358Y0175360D01*
X0064353Y0175421D01*
X0064344Y0175480D01*
X0064331Y0175539D01*
X0064315Y0175598D01*
X0064295Y0175655D01*
X0064272Y0175710D01*
X0064245Y0175765D01*
X0064216Y0175817D01*
X0064183Y0175868D01*
X0064147Y0175917D01*
X0064109Y0175963D01*
X0064067Y0176007D01*
X0064023Y0176049D01*
X0063977Y0176087D01*
X0063928Y0176123D01*
X0063877Y0176156D01*
X0063825Y0176185D01*
X0063770Y0176212D01*
X0063715Y0176235D01*
X0063658Y0176255D01*
X0063599Y0176271D01*
X0063540Y0176284D01*
X0063481Y0176293D01*
X0063420Y0176298D01*
X0063360Y0176300D01*
X0061860Y0176300D01*
X0061360Y0175800D01*
X0042360Y0175800D01*
X0041860Y0176300D01*
X0051860Y0150500D02*
X0051860Y0123100D01*
X0075860Y0101800D02*
X0075863Y0102070D01*
X0075873Y0102340D01*
X0075890Y0102609D01*
X0075913Y0102878D01*
X0075943Y0103147D01*
X0075979Y0103414D01*
X0076022Y0103681D01*
X0076071Y0103946D01*
X0076127Y0104210D01*
X0076190Y0104473D01*
X0076258Y0104734D01*
X0076334Y0104993D01*
X0076415Y0105250D01*
X0076503Y0105506D01*
X0076597Y0105759D01*
X0076697Y0106010D01*
X0076804Y0106258D01*
X0076916Y0106503D01*
X0077035Y0106746D01*
X0077159Y0106985D01*
X0077289Y0107222D01*
X0077425Y0107455D01*
X0077567Y0107685D01*
X0077714Y0107911D01*
X0077867Y0108134D01*
X0078025Y0108353D01*
X0078188Y0108568D01*
X0078357Y0108778D01*
X0078531Y0108985D01*
X0078710Y0109187D01*
X0078893Y0109385D01*
X0079082Y0109578D01*
X0079275Y0109767D01*
X0079473Y0109950D01*
X0079675Y0110129D01*
X0079882Y0110303D01*
X0080092Y0110472D01*
X0080307Y0110635D01*
X0080526Y0110793D01*
X0080749Y0110946D01*
X0080975Y0111093D01*
X0081205Y0111235D01*
X0081438Y0111371D01*
X0081675Y0111501D01*
X0081914Y0111625D01*
X0082157Y0111744D01*
X0082402Y0111856D01*
X0082650Y0111963D01*
X0082901Y0112063D01*
X0083154Y0112157D01*
X0083410Y0112245D01*
X0083667Y0112326D01*
X0083926Y0112402D01*
X0084187Y0112470D01*
X0084450Y0112533D01*
X0084714Y0112589D01*
X0084979Y0112638D01*
X0085246Y0112681D01*
X0085513Y0112717D01*
X0085782Y0112747D01*
X0086051Y0112770D01*
X0086320Y0112787D01*
X0086590Y0112797D01*
X0086860Y0112800D01*
X0087130Y0112797D01*
X0087400Y0112787D01*
X0087669Y0112770D01*
X0087938Y0112747D01*
X0088207Y0112717D01*
X0088474Y0112681D01*
X0088741Y0112638D01*
X0089006Y0112589D01*
X0089270Y0112533D01*
X0089533Y0112470D01*
X0089794Y0112402D01*
X0090053Y0112326D01*
X0090310Y0112245D01*
X0090566Y0112157D01*
X0090819Y0112063D01*
X0091070Y0111963D01*
X0091318Y0111856D01*
X0091563Y0111744D01*
X0091806Y0111625D01*
X0092045Y0111501D01*
X0092282Y0111371D01*
X0092515Y0111235D01*
X0092745Y0111093D01*
X0092971Y0110946D01*
X0093194Y0110793D01*
X0093413Y0110635D01*
X0093628Y0110472D01*
X0093838Y0110303D01*
X0094045Y0110129D01*
X0094247Y0109950D01*
X0094445Y0109767D01*
X0094638Y0109578D01*
X0094827Y0109385D01*
X0095010Y0109187D01*
X0095189Y0108985D01*
X0095363Y0108778D01*
X0095532Y0108568D01*
X0095695Y0108353D01*
X0095853Y0108134D01*
X0096006Y0107911D01*
X0096153Y0107685D01*
X0096295Y0107455D01*
X0096431Y0107222D01*
X0096561Y0106985D01*
X0096685Y0106746D01*
X0096804Y0106503D01*
X0096916Y0106258D01*
X0097023Y0106010D01*
X0097123Y0105759D01*
X0097217Y0105506D01*
X0097305Y0105250D01*
X0097386Y0104993D01*
X0097462Y0104734D01*
X0097530Y0104473D01*
X0097593Y0104210D01*
X0097649Y0103946D01*
X0097698Y0103681D01*
X0097741Y0103414D01*
X0097777Y0103147D01*
X0097807Y0102878D01*
X0097830Y0102609D01*
X0097847Y0102340D01*
X0097857Y0102070D01*
X0097860Y0101800D01*
X0097857Y0101530D01*
X0097847Y0101260D01*
X0097830Y0100991D01*
X0097807Y0100722D01*
X0097777Y0100453D01*
X0097741Y0100186D01*
X0097698Y0099919D01*
X0097649Y0099654D01*
X0097593Y0099390D01*
X0097530Y0099127D01*
X0097462Y0098866D01*
X0097386Y0098607D01*
X0097305Y0098350D01*
X0097217Y0098094D01*
X0097123Y0097841D01*
X0097023Y0097590D01*
X0096916Y0097342D01*
X0096804Y0097097D01*
X0096685Y0096854D01*
X0096561Y0096615D01*
X0096431Y0096378D01*
X0096295Y0096145D01*
X0096153Y0095915D01*
X0096006Y0095689D01*
X0095853Y0095466D01*
X0095695Y0095247D01*
X0095532Y0095032D01*
X0095363Y0094822D01*
X0095189Y0094615D01*
X0095010Y0094413D01*
X0094827Y0094215D01*
X0094638Y0094022D01*
X0094445Y0093833D01*
X0094247Y0093650D01*
X0094045Y0093471D01*
X0093838Y0093297D01*
X0093628Y0093128D01*
X0093413Y0092965D01*
X0093194Y0092807D01*
X0092971Y0092654D01*
X0092745Y0092507D01*
X0092515Y0092365D01*
X0092282Y0092229D01*
X0092045Y0092099D01*
X0091806Y0091975D01*
X0091563Y0091856D01*
X0091318Y0091744D01*
X0091070Y0091637D01*
X0090819Y0091537D01*
X0090566Y0091443D01*
X0090310Y0091355D01*
X0090053Y0091274D01*
X0089794Y0091198D01*
X0089533Y0091130D01*
X0089270Y0091067D01*
X0089006Y0091011D01*
X0088741Y0090962D01*
X0088474Y0090919D01*
X0088207Y0090883D01*
X0087938Y0090853D01*
X0087669Y0090830D01*
X0087400Y0090813D01*
X0087130Y0090803D01*
X0086860Y0090800D01*
X0086590Y0090803D01*
X0086320Y0090813D01*
X0086051Y0090830D01*
X0085782Y0090853D01*
X0085513Y0090883D01*
X0085246Y0090919D01*
X0084979Y0090962D01*
X0084714Y0091011D01*
X0084450Y0091067D01*
X0084187Y0091130D01*
X0083926Y0091198D01*
X0083667Y0091274D01*
X0083410Y0091355D01*
X0083154Y0091443D01*
X0082901Y0091537D01*
X0082650Y0091637D01*
X0082402Y0091744D01*
X0082157Y0091856D01*
X0081914Y0091975D01*
X0081675Y0092099D01*
X0081438Y0092229D01*
X0081205Y0092365D01*
X0080975Y0092507D01*
X0080749Y0092654D01*
X0080526Y0092807D01*
X0080307Y0092965D01*
X0080092Y0093128D01*
X0079882Y0093297D01*
X0079675Y0093471D01*
X0079473Y0093650D01*
X0079275Y0093833D01*
X0079082Y0094022D01*
X0078893Y0094215D01*
X0078710Y0094413D01*
X0078531Y0094615D01*
X0078357Y0094822D01*
X0078188Y0095032D01*
X0078025Y0095247D01*
X0077867Y0095466D01*
X0077714Y0095689D01*
X0077567Y0095915D01*
X0077425Y0096145D01*
X0077289Y0096378D01*
X0077159Y0096615D01*
X0077035Y0096854D01*
X0076916Y0097097D01*
X0076804Y0097342D01*
X0076697Y0097590D01*
X0076597Y0097841D01*
X0076503Y0098094D01*
X0076415Y0098350D01*
X0076334Y0098607D01*
X0076258Y0098866D01*
X0076190Y0099127D01*
X0076127Y0099390D01*
X0076071Y0099654D01*
X0076022Y0099919D01*
X0075979Y0100186D01*
X0075943Y0100453D01*
X0075913Y0100722D01*
X0075890Y0100991D01*
X0075873Y0101260D01*
X0075863Y0101530D01*
X0075860Y0101800D01*
X0011860Y0126300D02*
X0011860Y0135600D01*
X0011860Y0138000D01*
X0011860Y0150500D01*
X0011860Y0138000D02*
X0011929Y0137998D01*
X0011997Y0137992D01*
X0012065Y0137982D01*
X0012132Y0137969D01*
X0012198Y0137951D01*
X0012263Y0137930D01*
X0012327Y0137905D01*
X0012389Y0137877D01*
X0012450Y0137845D01*
X0012509Y0137810D01*
X0012565Y0137771D01*
X0012620Y0137729D01*
X0012671Y0137684D01*
X0012721Y0137636D01*
X0012767Y0137586D01*
X0012810Y0137533D01*
X0012851Y0137477D01*
X0012888Y0137420D01*
X0012921Y0137360D01*
X0012952Y0137298D01*
X0012978Y0137235D01*
X0013001Y0137171D01*
X0013021Y0137105D01*
X0013036Y0137038D01*
X0013048Y0136971D01*
X0013056Y0136903D01*
X0013060Y0136834D01*
X0013060Y0136766D01*
X0013056Y0136697D01*
X0013048Y0136629D01*
X0013036Y0136562D01*
X0013021Y0136495D01*
X0013001Y0136429D01*
X0012978Y0136365D01*
X0012952Y0136302D01*
X0012921Y0136240D01*
X0012888Y0136180D01*
X0012851Y0136123D01*
X0012810Y0136067D01*
X0012767Y0136014D01*
X0012721Y0135964D01*
X0012671Y0135916D01*
X0012620Y0135871D01*
X0012565Y0135829D01*
X0012509Y0135790D01*
X0012450Y0135755D01*
X0012389Y0135723D01*
X0012327Y0135695D01*
X0012263Y0135670D01*
X0012198Y0135649D01*
X0012132Y0135631D01*
X0012065Y0135618D01*
X0011997Y0135608D01*
X0011929Y0135602D01*
X0011860Y0135600D01*
D12*
X0005049Y0101800D02*
X0005053Y0102090D01*
X0005063Y0102380D01*
X0005081Y0102669D01*
X0005106Y0102958D01*
X0005138Y0103246D01*
X0005177Y0103533D01*
X0005223Y0103819D01*
X0005276Y0104104D01*
X0005336Y0104388D01*
X0005403Y0104670D01*
X0005477Y0104950D01*
X0005558Y0105229D01*
X0005645Y0105505D01*
X0005739Y0105779D01*
X0005840Y0106051D01*
X0005948Y0106320D01*
X0006062Y0106586D01*
X0006183Y0106850D01*
X0006310Y0107110D01*
X0006444Y0107368D01*
X0006583Y0107622D01*
X0006729Y0107872D01*
X0006881Y0108119D01*
X0007040Y0108362D01*
X0007204Y0108601D01*
X0007373Y0108836D01*
X0007549Y0109067D01*
X0007730Y0109293D01*
X0007917Y0109515D01*
X0008109Y0109732D01*
X0008306Y0109944D01*
X0008508Y0110152D01*
X0008716Y0110354D01*
X0008928Y0110551D01*
X0009145Y0110743D01*
X0009367Y0110930D01*
X0009593Y0111111D01*
X0009824Y0111287D01*
X0010059Y0111456D01*
X0010298Y0111620D01*
X0010541Y0111779D01*
X0010788Y0111931D01*
X0011038Y0112077D01*
X0011292Y0112216D01*
X0011550Y0112350D01*
X0011810Y0112477D01*
X0012074Y0112598D01*
X0012340Y0112712D01*
X0012609Y0112820D01*
X0012881Y0112921D01*
X0013155Y0113015D01*
X0013431Y0113102D01*
X0013710Y0113183D01*
X0013990Y0113257D01*
X0014272Y0113324D01*
X0014556Y0113384D01*
X0014841Y0113437D01*
X0015127Y0113483D01*
X0015414Y0113522D01*
X0015702Y0113554D01*
X0015991Y0113579D01*
X0016280Y0113597D01*
X0016570Y0113607D01*
X0016860Y0113611D01*
X0017150Y0113607D01*
X0017440Y0113597D01*
X0017729Y0113579D01*
X0018018Y0113554D01*
X0018306Y0113522D01*
X0018593Y0113483D01*
X0018879Y0113437D01*
X0019164Y0113384D01*
X0019448Y0113324D01*
X0019730Y0113257D01*
X0020010Y0113183D01*
X0020289Y0113102D01*
X0020565Y0113015D01*
X0020839Y0112921D01*
X0021111Y0112820D01*
X0021380Y0112712D01*
X0021646Y0112598D01*
X0021910Y0112477D01*
X0022170Y0112350D01*
X0022428Y0112216D01*
X0022682Y0112077D01*
X0022932Y0111931D01*
X0023179Y0111779D01*
X0023422Y0111620D01*
X0023661Y0111456D01*
X0023896Y0111287D01*
X0024127Y0111111D01*
X0024353Y0110930D01*
X0024575Y0110743D01*
X0024792Y0110551D01*
X0025004Y0110354D01*
X0025212Y0110152D01*
X0025414Y0109944D01*
X0025611Y0109732D01*
X0025803Y0109515D01*
X0025990Y0109293D01*
X0026171Y0109067D01*
X0026347Y0108836D01*
X0026516Y0108601D01*
X0026680Y0108362D01*
X0026839Y0108119D01*
X0026991Y0107872D01*
X0027137Y0107622D01*
X0027276Y0107368D01*
X0027410Y0107110D01*
X0027537Y0106850D01*
X0027658Y0106586D01*
X0027772Y0106320D01*
X0027880Y0106051D01*
X0027981Y0105779D01*
X0028075Y0105505D01*
X0028162Y0105229D01*
X0028243Y0104950D01*
X0028317Y0104670D01*
X0028384Y0104388D01*
X0028444Y0104104D01*
X0028497Y0103819D01*
X0028543Y0103533D01*
X0028582Y0103246D01*
X0028614Y0102958D01*
X0028639Y0102669D01*
X0028657Y0102380D01*
X0028667Y0102090D01*
X0028671Y0101800D01*
X0028667Y0101510D01*
X0028657Y0101220D01*
X0028639Y0100931D01*
X0028614Y0100642D01*
X0028582Y0100354D01*
X0028543Y0100067D01*
X0028497Y0099781D01*
X0028444Y0099496D01*
X0028384Y0099212D01*
X0028317Y0098930D01*
X0028243Y0098650D01*
X0028162Y0098371D01*
X0028075Y0098095D01*
X0027981Y0097821D01*
X0027880Y0097549D01*
X0027772Y0097280D01*
X0027658Y0097014D01*
X0027537Y0096750D01*
X0027410Y0096490D01*
X0027276Y0096232D01*
X0027137Y0095978D01*
X0026991Y0095728D01*
X0026839Y0095481D01*
X0026680Y0095238D01*
X0026516Y0094999D01*
X0026347Y0094764D01*
X0026171Y0094533D01*
X0025990Y0094307D01*
X0025803Y0094085D01*
X0025611Y0093868D01*
X0025414Y0093656D01*
X0025212Y0093448D01*
X0025004Y0093246D01*
X0024792Y0093049D01*
X0024575Y0092857D01*
X0024353Y0092670D01*
X0024127Y0092489D01*
X0023896Y0092313D01*
X0023661Y0092144D01*
X0023422Y0091980D01*
X0023179Y0091821D01*
X0022932Y0091669D01*
X0022682Y0091523D01*
X0022428Y0091384D01*
X0022170Y0091250D01*
X0021910Y0091123D01*
X0021646Y0091002D01*
X0021380Y0090888D01*
X0021111Y0090780D01*
X0020839Y0090679D01*
X0020565Y0090585D01*
X0020289Y0090498D01*
X0020010Y0090417D01*
X0019730Y0090343D01*
X0019448Y0090276D01*
X0019164Y0090216D01*
X0018879Y0090163D01*
X0018593Y0090117D01*
X0018306Y0090078D01*
X0018018Y0090046D01*
X0017729Y0090021D01*
X0017440Y0090003D01*
X0017150Y0089993D01*
X0016860Y0089989D01*
X0016570Y0089993D01*
X0016280Y0090003D01*
X0015991Y0090021D01*
X0015702Y0090046D01*
X0015414Y0090078D01*
X0015127Y0090117D01*
X0014841Y0090163D01*
X0014556Y0090216D01*
X0014272Y0090276D01*
X0013990Y0090343D01*
X0013710Y0090417D01*
X0013431Y0090498D01*
X0013155Y0090585D01*
X0012881Y0090679D01*
X0012609Y0090780D01*
X0012340Y0090888D01*
X0012074Y0091002D01*
X0011810Y0091123D01*
X0011550Y0091250D01*
X0011292Y0091384D01*
X0011038Y0091523D01*
X0010788Y0091669D01*
X0010541Y0091821D01*
X0010298Y0091980D01*
X0010059Y0092144D01*
X0009824Y0092313D01*
X0009593Y0092489D01*
X0009367Y0092670D01*
X0009145Y0092857D01*
X0008928Y0093049D01*
X0008716Y0093246D01*
X0008508Y0093448D01*
X0008306Y0093656D01*
X0008109Y0093868D01*
X0007917Y0094085D01*
X0007730Y0094307D01*
X0007549Y0094533D01*
X0007373Y0094764D01*
X0007204Y0094999D01*
X0007040Y0095238D01*
X0006881Y0095481D01*
X0006729Y0095728D01*
X0006583Y0095978D01*
X0006444Y0096232D01*
X0006310Y0096490D01*
X0006183Y0096750D01*
X0006062Y0097014D01*
X0005948Y0097280D01*
X0005840Y0097549D01*
X0005739Y0097821D01*
X0005645Y0098095D01*
X0005558Y0098371D01*
X0005477Y0098650D01*
X0005403Y0098930D01*
X0005336Y0099212D01*
X0005276Y0099496D01*
X0005223Y0099781D01*
X0005177Y0100067D01*
X0005138Y0100354D01*
X0005106Y0100642D01*
X0005081Y0100931D01*
X0005063Y0101220D01*
X0005053Y0101510D01*
X0005049Y0101800D01*
X0036860Y0106800D02*
X0036860Y0091800D01*
X0036860Y0106800D02*
X0066860Y0106800D01*
X0066860Y0091800D01*
X0071860Y0104300D02*
X0071860Y0109300D01*
X0070904Y0111050D02*
X0071655Y0111801D01*
X0070904Y0111050D02*
X0069403Y0111050D01*
X0068652Y0111801D01*
X0068652Y0114803D01*
X0069403Y0115554D01*
X0070904Y0115554D01*
X0071655Y0114803D01*
X0073256Y0114053D02*
X0074757Y0115554D01*
X0074757Y0111050D01*
X0073256Y0111050D02*
X0076259Y0111050D01*
X0074360Y0106800D02*
X0069360Y0106800D01*
X0064360Y0121800D02*
X0091860Y0121800D01*
X0091860Y0151800D01*
X0061860Y0151800D01*
X0061860Y0124300D01*
X0064360Y0121800D01*
X0047717Y0178050D02*
X0044714Y0178050D01*
X0046215Y0178050D02*
X0046215Y0182554D01*
X0044714Y0181053D01*
X0043113Y0181803D02*
X0043113Y0180302D01*
X0042362Y0179551D01*
X0040110Y0179551D01*
X0040110Y0178050D02*
X0040110Y0182554D01*
X0042362Y0182554D01*
X0043113Y0181803D01*
X0041611Y0179551D02*
X0043113Y0178050D01*
X0046860Y0094300D02*
X0045757Y0094164D01*
X0044658Y0094001D01*
X0043563Y0093810D01*
X0042474Y0093593D01*
X0041389Y0093350D01*
X0040312Y0093079D01*
X0039241Y0092783D01*
X0038178Y0092460D01*
X0037123Y0092111D01*
X0036076Y0091737D01*
X0035040Y0091337D01*
X0034013Y0090911D01*
X0032998Y0090461D01*
X0031993Y0089986D01*
X0031001Y0089486D01*
X0030021Y0088962D01*
X0029054Y0088414D01*
X0028101Y0087843D01*
X0027163Y0087248D01*
X0026239Y0086630D01*
X0025330Y0085990D01*
X0024438Y0085328D01*
X0023562Y0084645D01*
X0022703Y0083940D01*
X0021862Y0083214D01*
X0021039Y0082467D01*
X0020234Y0081701D01*
X0019449Y0080915D01*
X0018683Y0080110D01*
X0017937Y0079287D01*
X0017211Y0078445D01*
X0016506Y0077586D01*
X0015823Y0076710D01*
X0015161Y0075818D01*
X0014521Y0074909D01*
X0013904Y0073985D01*
X0013310Y0073046D01*
X0012739Y0072093D01*
X0012191Y0071126D01*
X0011667Y0070146D01*
X0011168Y0069154D01*
X0010693Y0068149D01*
X0010243Y0067133D01*
X0009818Y0066106D01*
X0009418Y0065070D01*
X0009044Y0064023D01*
X0008695Y0062968D01*
X0008373Y0061905D01*
X0008077Y0060834D01*
X0007807Y0059756D01*
X0007564Y0058672D01*
X0007347Y0057582D01*
X0007157Y0056487D01*
X0006994Y0055388D01*
X0006858Y0054285D01*
X0006750Y0053179D01*
X0006668Y0052071D01*
X0006613Y0050961D01*
X0006586Y0049851D01*
X0006586Y0048739D01*
X0006614Y0047629D01*
X0006668Y0046519D01*
X0006750Y0045411D01*
X0006859Y0044305D01*
X0006996Y0043202D01*
X0007159Y0042103D01*
X0007349Y0041008D01*
X0007566Y0039918D01*
X0007809Y0038834D01*
X0008079Y0037756D01*
X0008376Y0036686D01*
X0008698Y0035622D01*
X0009047Y0034567D01*
X0009421Y0033521D01*
X0009821Y0032484D01*
X0010247Y0031458D01*
X0010697Y0030442D01*
X0011172Y0029438D01*
X0011672Y0028445D01*
X0012196Y0027465D01*
X0012744Y0026498D01*
X0013315Y0025545D01*
X0013909Y0024607D01*
X0014527Y0023683D01*
X0015167Y0022774D01*
X0015829Y0021882D01*
X0016512Y0021006D01*
X0017217Y0020147D01*
X0017943Y0019306D01*
X0018689Y0018483D01*
X0019456Y0017678D01*
X0020241Y0016892D01*
X0021046Y0016126D01*
X0021870Y0015380D01*
X0022711Y0014654D01*
X0023570Y0013949D01*
X0024446Y0013266D01*
X0025338Y0012604D01*
X0026247Y0011964D01*
X0027171Y0011347D01*
X0028110Y0010752D01*
X0029063Y0010181D01*
X0030030Y0009633D01*
X0031010Y0009110D01*
X0032002Y0008610D01*
X0033007Y0008135D01*
X0034022Y0007685D01*
X0035049Y0007260D01*
X0036086Y0006860D01*
X0037132Y0006485D01*
X0038187Y0006137D01*
X0039250Y0005814D01*
X0040321Y0005518D01*
X0041399Y0005248D01*
X0042483Y0005005D01*
X0043573Y0004788D01*
X0044668Y0004598D01*
X0045767Y0004435D01*
X0046870Y0004299D01*
X0047976Y0004190D01*
X0049084Y0004108D01*
X0050194Y0004054D01*
X0051304Y0004026D01*
X0052416Y0004026D01*
X0053526Y0004054D01*
X0054636Y0004108D01*
X0055744Y0004190D01*
X0056850Y0004299D01*
X0057953Y0004435D01*
X0059052Y0004598D01*
X0060147Y0004788D01*
X0061237Y0005005D01*
X0062321Y0005248D01*
X0063399Y0005518D01*
X0064470Y0005814D01*
X0065533Y0006137D01*
X0066588Y0006485D01*
X0067634Y0006860D01*
X0068671Y0007260D01*
X0069698Y0007685D01*
X0070713Y0008135D01*
X0071718Y0008610D01*
X0072710Y0009110D01*
X0073690Y0009633D01*
X0074657Y0010181D01*
X0075610Y0010752D01*
X0076549Y0011347D01*
X0077473Y0011964D01*
X0078382Y0012604D01*
X0079274Y0013266D01*
X0080150Y0013949D01*
X0081009Y0014654D01*
X0081850Y0015380D01*
X0082674Y0016126D01*
X0083479Y0016892D01*
X0084264Y0017678D01*
X0085031Y0018483D01*
X0085777Y0019306D01*
X0086503Y0020147D01*
X0087208Y0021006D01*
X0087891Y0021882D01*
X0088553Y0022774D01*
X0089193Y0023683D01*
X0089811Y0024607D01*
X0090405Y0025545D01*
X0090976Y0026498D01*
X0091524Y0027465D01*
X0092048Y0028445D01*
X0092548Y0029438D01*
X0093023Y0030442D01*
X0093473Y0031458D01*
X0093899Y0032484D01*
X0094299Y0033521D01*
X0094673Y0034567D01*
X0095022Y0035622D01*
X0095344Y0036686D01*
X0095641Y0037756D01*
X0095911Y0038834D01*
X0096154Y0039918D01*
X0096371Y0041008D01*
X0096561Y0042103D01*
X0096724Y0043202D01*
X0096861Y0044305D01*
X0096970Y0045411D01*
X0097052Y0046519D01*
X0097106Y0047629D01*
X0097134Y0048739D01*
X0097134Y0049851D01*
X0097107Y0050961D01*
X0097052Y0052071D01*
X0096970Y0053179D01*
X0096862Y0054285D01*
X0096726Y0055388D01*
X0096563Y0056487D01*
X0096373Y0057582D01*
X0096156Y0058672D01*
X0095913Y0059756D01*
X0095643Y0060834D01*
X0095347Y0061905D01*
X0095025Y0062968D01*
X0094676Y0064023D01*
X0094302Y0065070D01*
X0093902Y0066106D01*
X0093477Y0067133D01*
X0093027Y0068149D01*
X0092552Y0069154D01*
X0092053Y0070146D01*
X0091529Y0071126D01*
X0090981Y0072093D01*
X0090410Y0073046D01*
X0089816Y0073985D01*
X0089199Y0074909D01*
X0088559Y0075818D01*
X0087897Y0076710D01*
X0087214Y0077586D01*
X0086509Y0078445D01*
X0085783Y0079287D01*
X0085037Y0080110D01*
X0084271Y0080915D01*
X0083486Y0081701D01*
X0082681Y0082467D01*
X0081858Y0083214D01*
X0081017Y0083940D01*
X0080158Y0084645D01*
X0079282Y0085328D01*
X0078390Y0085990D01*
X0077481Y0086630D01*
X0076557Y0087248D01*
X0075619Y0087843D01*
X0074666Y0088414D01*
X0073699Y0088962D01*
X0072719Y0089486D01*
X0071727Y0089986D01*
X0070722Y0090461D01*
X0069707Y0090911D01*
X0068680Y0091337D01*
X0067644Y0091737D01*
X0066597Y0092111D01*
X0065542Y0092460D01*
X0064479Y0092783D01*
X0063408Y0093079D01*
X0062331Y0093350D01*
X0061246Y0093593D01*
X0060157Y0093810D01*
X0059062Y0094001D01*
X0057963Y0094164D01*
X0056860Y0094300D01*
D13*
X0066060Y0171800D03*
X0037660Y0171800D03*
D14*
X0022298Y0159550D02*
X0017361Y0159550D01*
X0014748Y0160784D02*
X0014748Y0166956D01*
X0017361Y0164488D02*
X0019829Y0166956D01*
X0019829Y0159550D01*
X0014748Y0160784D02*
X0013513Y0159550D01*
X0011044Y0159550D01*
X0009810Y0160784D01*
X0009810Y0166956D01*
D15*
X0037827Y0057000D02*
X0039362Y0057000D01*
X0040129Y0057767D01*
X0041664Y0057000D02*
X0041664Y0060069D01*
X0041664Y0058535D02*
X0043199Y0060069D01*
X0043966Y0060069D01*
X0045501Y0060837D02*
X0046268Y0061604D01*
X0047803Y0061604D01*
X0048570Y0060837D01*
X0048570Y0060069D01*
X0045501Y0057000D01*
X0048570Y0057000D01*
X0050105Y0057767D02*
X0050105Y0060837D01*
X0050872Y0061604D01*
X0052406Y0061604D01*
X0053174Y0060837D01*
X0050105Y0057767D01*
X0050872Y0057000D01*
X0052406Y0057000D01*
X0053174Y0057767D01*
X0053174Y0060837D01*
X0054708Y0060837D02*
X0055476Y0061604D01*
X0057010Y0061604D01*
X0057778Y0060837D01*
X0057778Y0060069D01*
X0057010Y0059302D01*
X0057778Y0058535D01*
X0057778Y0057767D01*
X0057010Y0057000D01*
X0055476Y0057000D01*
X0054708Y0057767D01*
X0056243Y0059302D02*
X0057010Y0059302D01*
X0059312Y0060837D02*
X0060080Y0061604D01*
X0061614Y0061604D01*
X0062382Y0060837D01*
X0062382Y0060069D01*
X0059312Y0057000D01*
X0062382Y0057000D01*
X0040129Y0060837D02*
X0039362Y0061604D01*
X0037827Y0061604D01*
X0037060Y0060837D01*
X0037060Y0057767D01*
X0037827Y0057000D01*
X0077431Y0132965D02*
X0078199Y0132965D01*
X0078966Y0133733D01*
X0078966Y0137569D01*
X0076664Y0137569D01*
X0075897Y0136802D01*
X0075897Y0135267D01*
X0076664Y0134500D01*
X0078966Y0134500D01*
X0080501Y0134500D02*
X0082803Y0134500D01*
X0083570Y0135267D01*
X0083570Y0136802D01*
X0082803Y0137569D01*
X0080501Y0137569D01*
X0080501Y0139104D02*
X0080501Y0134500D01*
X0074362Y0137569D02*
X0073595Y0137569D01*
X0072060Y0136035D01*
X0072060Y0137569D02*
X0072060Y0134500D01*
M02*
