%
M48
M72
T01C0.03150
T02C0.03937
T03C0.04400
T04C0.12598
%
T01
X31860Y171800
X71860Y171800
T02
X51860Y17430
X51860Y96170
X66860Y126800
X66860Y146800
X86860Y146800
X86860Y126800
X81860Y101800
X91860Y101800
X21860Y101800
X11860Y101800
T03
X16860Y121800
X26860Y121800
X36860Y121800
X46860Y121800
X46860Y151800
X36860Y151800
X26860Y151800
X16860Y151800
T04
X51860Y196800
M30
