G75*
%MOIN*%
%OFA0B0*%
%FSLAX25Y25*%
%IPPOS*%
%LPD*%
%AMOC8*
5,1,8,0,0,1.08239X$1,22.5*
%
%ADD10C,0.00000*%
%ADD11C,0.12998*%
%ADD12OC8,0.07487*%
%ADD13R,0.08274X0.08274*%
%ADD14C,0.08274*%
%ADD15OC8,0.08274*%
D10*
X0045561Y0196800D02*
X0045563Y0196958D01*
X0045569Y0197116D01*
X0045579Y0197274D01*
X0045593Y0197432D01*
X0045611Y0197589D01*
X0045632Y0197746D01*
X0045658Y0197902D01*
X0045688Y0198058D01*
X0045721Y0198213D01*
X0045759Y0198366D01*
X0045800Y0198519D01*
X0045845Y0198671D01*
X0045894Y0198822D01*
X0045947Y0198971D01*
X0046003Y0199119D01*
X0046063Y0199265D01*
X0046127Y0199410D01*
X0046195Y0199553D01*
X0046266Y0199695D01*
X0046340Y0199835D01*
X0046418Y0199972D01*
X0046500Y0200108D01*
X0046584Y0200242D01*
X0046673Y0200373D01*
X0046764Y0200502D01*
X0046859Y0200629D01*
X0046956Y0200754D01*
X0047057Y0200876D01*
X0047161Y0200995D01*
X0047268Y0201112D01*
X0047378Y0201226D01*
X0047491Y0201337D01*
X0047606Y0201446D01*
X0047724Y0201551D01*
X0047845Y0201653D01*
X0047968Y0201753D01*
X0048094Y0201849D01*
X0048222Y0201942D01*
X0048352Y0202032D01*
X0048485Y0202118D01*
X0048620Y0202202D01*
X0048756Y0202281D01*
X0048895Y0202358D01*
X0049036Y0202430D01*
X0049178Y0202500D01*
X0049322Y0202565D01*
X0049468Y0202627D01*
X0049615Y0202685D01*
X0049764Y0202740D01*
X0049914Y0202791D01*
X0050065Y0202838D01*
X0050217Y0202881D01*
X0050370Y0202920D01*
X0050525Y0202956D01*
X0050680Y0202987D01*
X0050836Y0203015D01*
X0050992Y0203039D01*
X0051149Y0203059D01*
X0051307Y0203075D01*
X0051464Y0203087D01*
X0051623Y0203095D01*
X0051781Y0203099D01*
X0051939Y0203099D01*
X0052097Y0203095D01*
X0052256Y0203087D01*
X0052413Y0203075D01*
X0052571Y0203059D01*
X0052728Y0203039D01*
X0052884Y0203015D01*
X0053040Y0202987D01*
X0053195Y0202956D01*
X0053350Y0202920D01*
X0053503Y0202881D01*
X0053655Y0202838D01*
X0053806Y0202791D01*
X0053956Y0202740D01*
X0054105Y0202685D01*
X0054252Y0202627D01*
X0054398Y0202565D01*
X0054542Y0202500D01*
X0054684Y0202430D01*
X0054825Y0202358D01*
X0054964Y0202281D01*
X0055100Y0202202D01*
X0055235Y0202118D01*
X0055368Y0202032D01*
X0055498Y0201942D01*
X0055626Y0201849D01*
X0055752Y0201753D01*
X0055875Y0201653D01*
X0055996Y0201551D01*
X0056114Y0201446D01*
X0056229Y0201337D01*
X0056342Y0201226D01*
X0056452Y0201112D01*
X0056559Y0200995D01*
X0056663Y0200876D01*
X0056764Y0200754D01*
X0056861Y0200629D01*
X0056956Y0200502D01*
X0057047Y0200373D01*
X0057136Y0200242D01*
X0057220Y0200108D01*
X0057302Y0199972D01*
X0057380Y0199835D01*
X0057454Y0199695D01*
X0057525Y0199553D01*
X0057593Y0199410D01*
X0057657Y0199265D01*
X0057717Y0199119D01*
X0057773Y0198971D01*
X0057826Y0198822D01*
X0057875Y0198671D01*
X0057920Y0198519D01*
X0057961Y0198366D01*
X0057999Y0198213D01*
X0058032Y0198058D01*
X0058062Y0197902D01*
X0058088Y0197746D01*
X0058109Y0197589D01*
X0058127Y0197432D01*
X0058141Y0197274D01*
X0058151Y0197116D01*
X0058157Y0196958D01*
X0058159Y0196800D01*
X0058157Y0196642D01*
X0058151Y0196484D01*
X0058141Y0196326D01*
X0058127Y0196168D01*
X0058109Y0196011D01*
X0058088Y0195854D01*
X0058062Y0195698D01*
X0058032Y0195542D01*
X0057999Y0195387D01*
X0057961Y0195234D01*
X0057920Y0195081D01*
X0057875Y0194929D01*
X0057826Y0194778D01*
X0057773Y0194629D01*
X0057717Y0194481D01*
X0057657Y0194335D01*
X0057593Y0194190D01*
X0057525Y0194047D01*
X0057454Y0193905D01*
X0057380Y0193765D01*
X0057302Y0193628D01*
X0057220Y0193492D01*
X0057136Y0193358D01*
X0057047Y0193227D01*
X0056956Y0193098D01*
X0056861Y0192971D01*
X0056764Y0192846D01*
X0056663Y0192724D01*
X0056559Y0192605D01*
X0056452Y0192488D01*
X0056342Y0192374D01*
X0056229Y0192263D01*
X0056114Y0192154D01*
X0055996Y0192049D01*
X0055875Y0191947D01*
X0055752Y0191847D01*
X0055626Y0191751D01*
X0055498Y0191658D01*
X0055368Y0191568D01*
X0055235Y0191482D01*
X0055100Y0191398D01*
X0054964Y0191319D01*
X0054825Y0191242D01*
X0054684Y0191170D01*
X0054542Y0191100D01*
X0054398Y0191035D01*
X0054252Y0190973D01*
X0054105Y0190915D01*
X0053956Y0190860D01*
X0053806Y0190809D01*
X0053655Y0190762D01*
X0053503Y0190719D01*
X0053350Y0190680D01*
X0053195Y0190644D01*
X0053040Y0190613D01*
X0052884Y0190585D01*
X0052728Y0190561D01*
X0052571Y0190541D01*
X0052413Y0190525D01*
X0052256Y0190513D01*
X0052097Y0190505D01*
X0051939Y0190501D01*
X0051781Y0190501D01*
X0051623Y0190505D01*
X0051464Y0190513D01*
X0051307Y0190525D01*
X0051149Y0190541D01*
X0050992Y0190561D01*
X0050836Y0190585D01*
X0050680Y0190613D01*
X0050525Y0190644D01*
X0050370Y0190680D01*
X0050217Y0190719D01*
X0050065Y0190762D01*
X0049914Y0190809D01*
X0049764Y0190860D01*
X0049615Y0190915D01*
X0049468Y0190973D01*
X0049322Y0191035D01*
X0049178Y0191100D01*
X0049036Y0191170D01*
X0048895Y0191242D01*
X0048756Y0191319D01*
X0048620Y0191398D01*
X0048485Y0191482D01*
X0048352Y0191568D01*
X0048222Y0191658D01*
X0048094Y0191751D01*
X0047968Y0191847D01*
X0047845Y0191947D01*
X0047724Y0192049D01*
X0047606Y0192154D01*
X0047491Y0192263D01*
X0047378Y0192374D01*
X0047268Y0192488D01*
X0047161Y0192605D01*
X0047057Y0192724D01*
X0046956Y0192846D01*
X0046859Y0192971D01*
X0046764Y0193098D01*
X0046673Y0193227D01*
X0046584Y0193358D01*
X0046500Y0193492D01*
X0046418Y0193628D01*
X0046340Y0193765D01*
X0046266Y0193905D01*
X0046195Y0194047D01*
X0046127Y0194190D01*
X0046063Y0194335D01*
X0046003Y0194481D01*
X0045947Y0194629D01*
X0045894Y0194778D01*
X0045845Y0194929D01*
X0045800Y0195081D01*
X0045759Y0195234D01*
X0045721Y0195387D01*
X0045688Y0195542D01*
X0045658Y0195698D01*
X0045632Y0195854D01*
X0045611Y0196011D01*
X0045593Y0196168D01*
X0045579Y0196326D01*
X0045569Y0196484D01*
X0045563Y0196642D01*
X0045561Y0196800D01*
D11*
X0051860Y0196800D03*
D12*
X0031860Y0171800D03*
X0071860Y0171800D03*
D13*
X0051860Y0017430D03*
X0021860Y0101800D03*
X0016860Y0121800D03*
X0086860Y0126800D03*
D14*
X0086860Y0146800D03*
X0066860Y0146800D03*
X0066860Y0126800D03*
X0081860Y0101800D03*
X0051860Y0096170D03*
X0046860Y0121800D03*
X0036860Y0121800D03*
X0026860Y0121800D03*
X0011860Y0101800D03*
X0016860Y0151800D03*
X0026860Y0151800D03*
X0036860Y0151800D03*
X0046860Y0151800D03*
D15*
X0091860Y0101800D03*
M02*
